<svg id="l_d_2824" xmlns="http://www.w3.org/2000/svg" xmlns:xlink="http://www.w3.org/1999/xlink" viewBox="0 0 35 35" width="35" height="35" preserveAspectRatio="xMidYMid meet" style="width: 100%; height: 100%; transform: translate3d(0px, 0px, 0px); content-visibility: visible;"><defs id="l_d_2825"><clipPath id="__lottie_element_1275"><rect id="l_d_2828" width="35" height="35" x="0" y="0"></rect></clipPath><g id="__lottie_element_1280"><g id="l_d_2837" transform="matrix(1,0,0,1,2.6220006942749023,-0.2480010986328125)" opacity="1" style="display: block;"><path id="l_d_2842" fill="rgb(255,0,0)" fill-opacity="1" d=" M5,32 C5,32 5,5.96 5,5.96 C5,5.43 5.43,5 5.96,5 C5.96,5 20.05,5 20.05,5 C20.58,5 21.01,5.43 21.01,5.96 C21.01,5.96 21.01,32 21.01,32 M18,19 C18,19.55 17.56,20 17,20 C16.45,20 16,19.55 16,19 C16,18.45 16.45,18 17,18 C17.56,18 18,18.45 18,19z"></path><g id="l_d_2843" opacity="1" transform="matrix(1,0,0,1,13.005000114440918,18.499000549316406)"><path id="l_d_2844" stroke-linecap="butt" stroke-linejoin="miter" fill-opacity="0" stroke-miterlimit="10" stroke="rgb(34,34,34)" stroke-opacity="1" stroke-width="2" d=" M-8.005000114440918,13.49899959564209 C-8.005000114440918,13.49899959564209 -8.005000114440918,-12.543000221252441 -8.005000114440918,-12.543000221252441 C-8.005000114440918,-13.071000099182129 -7.577000141143799,-13.49899959564209 -7.047999858856201,-13.49899959564209 C-7.047999858856201,-13.49899959564209 7.048999786376953,-13.49899959564209 7.048999786376953,-13.49899959564209 C7.577000141143799,-13.49899959564209 8.005000114440918,-13.071000099182129 8.005000114440918,-12.543000221252441 C8.005000114440918,-12.543000221252441 8.005000114440918,13.49899959564209 8.005000114440918,13.49899959564209"></path></g><g id="l_d_2845" opacity="1" transform="matrix(1,0,0,1,17.003000259399414,18.99799919128418)"><path id="l_d_2846" fill="rgb(34,34,34)" fill-opacity="1" d=" M1,0 C1,0.5519999861717224 0.5519999861717224,1 0,1 C-0.5519999861717224,1 -1,0.5519999861717224 -1,0 C-1,-0.5519999861717224 -0.5519999861717224,-1 0,-1 C0.5519999861717224,-1 1,-0.5519999861717224 1,0z"></path></g></g></g><filter id="__lottie_element_1286" filterUnits="objectBoundingBox" x="0%" y="0%" width="100%" height="100%"><feComponentTransfer id="l_d_2856" in="SourceGraphic"><feFuncA id="l_d_2857" type="table" tableValues="1.0 0.0"></feFuncA></feComponentTransfer></filter><mask id="__lottie_element_1280_2" mask-type="alpha"><g id="l_d_2854" filter="url(#__lottie_element_1286)"><rect id="l_d_2858" width="35" height="35" x="0" y="0" fill="#ffffff" opacity="0"></rect><use id="l_d_2859" xlink:href="#__lottie_element_1280"></use></g></mask></defs><g id="l_d_2826" clip-path="url(#__lottie_element_1275)"><g id="l_d_2866" transform="matrix(1,0,0,1,17.75,18.75)" opacity="1" style="display: block;"><g id="l_d_2870" opacity="1" transform="matrix(1,0,0,1,0,0)"><path id="l_d_2871" stroke-linecap="butt" stroke-linejoin="miter" fill-opacity="0" stroke-miterlimit="4" stroke="rgb(34,34,34)" stroke-opacity="1" stroke-width="2" d=" M5.875,-13 C5.875,-13 5.875,13.281000137329102 5.875,13.281000137329102"></path></g></g><g id="l_d_2860" transform="matrix(1,0,0,1,3.625,31.749000549316406)" opacity="1" style="display: block;"><g id="l_d_2864" opacity="1" transform="matrix(1,0,0,1,0,0)"><path id="l_d_2865" stroke-linecap="butt" stroke-linejoin="miter" fill-opacity="0" stroke-miterlimit="10" stroke="rgb(34,34,34)" stroke-opacity="1" stroke-width="2" d=" M1,1 C1,1 27,1 27,1"></path></g></g><g id="l_d_2848" mask="url(#__lottie_element_1280_2)" style="display: block;"><g id="l_d_2847" transform="matrix(1,0,0,1,2.6220006942749023,-0.2480010986328125)" opacity="1"><g id="l_d_2851" opacity="1" transform="matrix(1,0,0,1,14.979999542236328,18.499000549316406)"><path id="l_d_2852" stroke-linecap="butt" stroke-linejoin="miter" fill-opacity="0" stroke-miterlimit="10" stroke="rgb(34,34,34)" stroke-opacity="1" stroke-width="2" d=" M-9.979999542236328,13.49899959564209 C-9.979999542236328,13.49899959564209 -9.979999542236328,-12.543000221252441 -9.979999542236328,-12.543000221252441 C-9.979999542236328,-13.071000099182129 -9.552000045776367,-13.49899959564209 -9.02299976348877,-13.49899959564209 C-9.02299976348877,-13.49899959564209 9.02299976348877,-13.49899959564209 9.02299976348877,-13.49899959564209 C9.550999641418457,-13.49899959564209 9.979999542236328,-13.071000099182129 9.979999542236328,-12.543000221252441 C9.979999542236328,-12.543000221252441 9.979999542236328,13.49899959564209 9.979999542236328,13.49899959564209"></path></g></g></g><g id="l_d_2829" transform="matrix(1,0,0,1,2.6220006942749023,-0.2480010986328125)" opacity="1" style="display: block;"><g id="l_d_2833" opacity="1" transform="matrix(1,0,0,1,13.005000114440918,18.499000549316406)"><path id="l_d_2834" stroke-linecap="butt" stroke-linejoin="miter" fill-opacity="0" stroke-miterlimit="10" stroke="rgb(34,34,34)" stroke-opacity="1" stroke-width="2" d=" M-8.005000114440918,13.49899959564209 C-8.005000114440918,13.49899959564209 -8.005000114440918,-12.543000221252441 -8.005000114440918,-12.543000221252441 C-8.005000114440918,-13.071000099182129 -7.577000141143799,-13.49899959564209 -7.047999858856201,-13.49899959564209 C-7.047999858856201,-13.49899959564209 7.048999786376953,-13.49899959564209 7.048999786376953,-13.49899959564209 C7.577000141143799,-13.49899959564209 8.005000114440918,-13.071000099182129 8.005000114440918,-12.543000221252441 C8.005000114440918,-12.543000221252441 8.005000114440918,13.49899959564209 8.005000114440918,13.49899959564209"></path></g><g id="l_d_2835" opacity="1" transform="matrix(1,0,0,1,17.003000259399414,18.99799919128418)"><path id="l_d_2836" fill="rgb(34,34,34)" fill-opacity="1" d=" M1,0 C1,0.5519999861717224 0.5519999861717224,1 0,1 C-0.5519999861717224,1 -1,0.5519999861717224 -1,0 C-1,-0.5519999861717224 -0.5519999861717224,-1 0,-1 C0.5519999861717224,-1 1,-0.5519999861717224 1,0z"></path></g></g></g></svg>