<svg xmlns="http://www.w3.org/2000/svg" viewBox="0 0 32 32" aria-hidden="true" role="presentation" focusable="false" style="display: block; height: 24px; width: 24px; fill: #222222;"><path d="M30 29v2H2v-2zM20 1a2 2 0 0 1 2 1.85V5h3a5 5 0 0 1 5 4.78V22a5 5 0 0 1-4.78 5H7a5 5 0 0 1-5-4.78V10a5 5 0 0 1 4.78-5H10V3a2 2 0 0 1 1.85-2H12zm5 6H7a3 3 0 0 0-3 2.82V22a3 3 0 0 0 2.82 3H25a3 3 0 0 0 3-2.82V10a3 3 0 0 0-3-3zm-8 2v9.5l3.3-3.3 1.4 1.42-4.64 4.65-.11.1a1.5 1.5 0 0 1-1.9 0l-.11-.1-4.65-4.65 1.42-1.41L15 18.5V9zm3-6h-8v2h8z"></path></svg>