<svg xmlns="http://www.w3.org/2000/svg" viewBox="0 0 32 32" aria-hidden="true" role="presentation" focusable="false" style="display: block; height: 24px; width: 24px; fill: #222222;"><path d="m2 6.24 2 2V16h3.1a5 5 0 0 1 1.76-2.9l1.43 1.43a3 3 0 1 0 4.18 4.18l1.42 1.43a5 5 0 0 1-2.97 1.78A5 5 0 0 1 8.22 26H4v4H2V20h2v4h4a3 3 0 0 0 2.87-2.13A5 5 0 0 1 7.1 18H4a2 2 0 0 1-2-1.85V6.24zM3.7 2.3l26 26-1.4 1.42-26-26 1.4-1.42zM7.25 3H23a2 2 0 0 1 2 1.85v1.67l5-2v11.96l-5-2V16a2 2 0 0 1-1.85 2h-.91l-2-2H23V5H9.24l-2-2zM28 7.48l-3 1.2v3.64l3 1.2V7.48z"></path></svg>