<svg xmlns="http://www.w3.org/2000/svg" viewBox="0 0 32 32" aria-hidden="true" role="presentation" focusable="false" style="display: block; height: 24px; width: 24px; fill: #222222;"><path d="m24.5 28.74 2 2V31h-2v-2.26zm-10-10 6 6V25c0 3.27-2.18 6-5 6s-5-2.73-5-6c0-2.87 1.68-5.33 4-5.88v-.38zm-13-13 2 2V19h4l-.02-.96-.03-.95a53.9 53.9 0 0 0-.5-5.9l2.28 2.28c.17 1.82.26 3.83.27 6.03V21h-6v10h-2V5.74zM3.7 2.3l26 26-1.4 1.42-26-26 1.4-1.42zM15.5 21c-1.6 0-3 1.75-3 4s1.4 4 3 4 3-1.75 3-4-1.4-4-3-4zm10-20a5 5 0 0 1 5 5v.37l-.02.74a40.63 40.63 0 0 1-.27 3.67l-.09.71-.1.7-.12.7-.13.67-.14.66c-.7 3.15-1.79 5.63-3.13 6.47v1.57l-3.69-3.69c-1.4-2.79-2.27-7.59-2.3-12.23L20.5 6v-.22a5 5 0 0 1 5-4.78zm-1 2.17a3 3 0 0 0-2 2.65v.49c.05 4.32 1.03 9.13 2 11.39V3.17zm2 0V17.7c.99-2.31 2-7.3 2-11.7a3 3 0 0 0-2-2.83zM16.5 1v11.26l-2-2V1h2z"></path></svg>