<svg xmlns="http://www.w3.org/2000/svg" viewBox="0 0 32 32" aria-hidden="true" role="presentation" focusable="false" style="display: block; height: 24px; width: 24px; fill: #222222;"><path d="m2 6.24 2 2V28h19.76l2 2H4a2 2 0 0 1-2-1.85V6.24zM3.7 2.3l26 26-1.4 1.42-26-26 1.4-1.42zM28 2a2 2 0 0 1 2 1.85v21.91l-2-2V4H8.24l-2-2H28zM7.88 12.12l2.38 2.38h-.1c-.34 0-.68.02-1.02.07a7 7 0 0 0 9.21 8.03l1.53 1.52a9 9 0 0 1-12-12zM16 7a9 9 0 0 1 8.12 12.88l-2.7-2.7h.05a7 7 0 0 0 1.45-.14 7 7 0 0 0-9.27-7.63l-1.53-1.53A8.96 8.96 0 0 1 16 7z"></path></svg>