<svg id="l_d_4609" xmlns="http://www.w3.org/2000/svg" xmlns:xlink="http://www.w3.org/1999/xlink" viewBox="0 0 45 45" width="45" height="45" preserveAspectRatio="xMidYMid meet" style="width: 100%; height: 100%; transform: translate3d(0px, 0px, 0px); content-visibility: visible;"><defs id="l_d_4610"><clipPath id="__lottie_element_2070"><rect id="l_d_4613" width="45" height="45" x="0" y="0"></rect></clipPath><g id="__lottie_element_2081"><g id="l_d_4647" style="display: none;" transform="matrix(1,0,0,1,-23.5,-17.5)" opacity="1"><g id="l_d_4652" opacity="1" transform="matrix(1,0,0,1,40,40)"><path id="l_d_4653" fill="rgb(255,0,0)" fill-opacity="1" d=" M-12.024173736572266,-5.038791179656982 C-12.024173736572266,-5.038791179656982 12.024094581604004,-5.038791179656982 12.024094581604004,-5.038791179656982 C12.576094627380371,-5.038791179656982 13.024094581604004,-4.593161106109619 13.024094581604004,-4.043925762176514 C13.024094581604004,-4.043925762176514 12.998262405395508,10.681174278259277 12.998262405395508,10.681174278259277 C12.998262405395508,11.230408668518066 12.550262451171875,11.67603874206543 11.998262405395508,11.67603874206543 C11.998262405395508,11.67603874206543 -12.001737594604492,11.67603874206543 -12.001737594604492,11.67603874206543 C-12.55373764038086,11.67603874206543 -13.001737594604492,11.230408668518066 -13.001737594604492,10.681174278259277 C-13.001737594604492,10.681174278259277 -13.024173736572266,-4.043925762176514 -13.024173736572266,-4.043925762176514 C-13.024173736572266,-4.593161106109619 -12.576173782348633,-5.038791179656982 -12.024173736572266,-5.038791179656982z"></path></g></g></g><mask id="__lottie_element_2081_1" mask-type="alpha"><use id="l_d_4661" xlink:href="#__lottie_element_2081"></use></mask><g id="__lottie_element_2087"><g id="l_d_4662" style="display: none;" transform="matrix(1,0,0,1,-23.5,-17.5)" opacity="1"><g id="l_d_4667" opacity="1" transform="matrix(1,0,0,1,40,40)"><path id="l_d_4668" fill="rgb(255,0,0)" fill-opacity="1" d=" M-12.650723457336426,-4.932219982147217 C-12.650723457336426,-4.932219982147217 12.513421058654785,-4.927401065826416 12.513421058654785,-4.927401065826416 C13.065421104431152,-4.927401065826416 13.513421058654785,-4.481770992279053 13.513421058654785,-3.9325358867645264 C13.513421058654785,-3.9325358867645264 13.541386604309082,9.559690475463867 13.541386604309082,9.559690475463867 C13.541386604309082,10.108924865722656 13.09338665008545,10.55455493927002 12.541386604309082,10.55455493927002 C12.541386604309082,10.55455493927002 -12.890487670898438,10.55455493927002 -12.890487670898438,10.55455493927002 C-13.442487716674805,10.55455493927002 -13.890487670898438,10.108924865722656 -13.890487670898438,9.559690475463867 C-13.890487670898438,9.559690475463867 -13.650723457336426,-3.9372758865356445 -13.650723457336426,-3.9372758865356445 C-13.650723457336426,-4.48651123046875 -13.202722549438477,-4.932219982147217 -12.650723457336426,-4.932219982147217z"></path></g></g></g><mask id="__lottie_element_2087_1" mask-type="alpha"><use id="l_d_4687" xlink:href="#__lottie_element_2087"></use></mask></defs><g id="l_d_4611" clip-path="url(#__lottie_element_2070)"><g id="l_d_4688" transform="matrix(0.8568664789199829,0,0,0.8568664789199829,-17.774658203125,-11.774658203125)" opacity="1" style="display: none;"><g id="l_d_4692" opacity="1" transform="matrix(1,0,0,1,40,40)"></g><g id="l_d_4693" opacity="1" transform="matrix(1,0,0,1,40,40)"><path id="l_d_4694" stroke-linecap="butt" stroke-linejoin="miter" fill-opacity="0" stroke-miterlimit="4" stroke="rgb(34,34,34)" stroke-opacity="1" stroke-width="2" d=" M-12,-13 C-12,-13 12,-13 12,-13 C12.552000045776367,-13 13,-12.552000045776367 13,-12 C13,-12 13,12 13,12 C13,12.552000045776367 12.552000045776367,13 12,13 C12,13 -12,13 -12,13 C-12.552000045776367,13 -13,12.552000045776367 -13,12 C-13,12 -13,-12 -13,-12 C-13,-12.552000045776367 -12.552000045776367,-13 -12,-13z"></path></g><g id="l_d_4695" opacity="1" transform="matrix(1,0,0,1,40,35)"><path id="l_d_4696" stroke-linecap="butt" stroke-linejoin="miter" fill-opacity="0" stroke-miterlimit="4" stroke="rgb(34,34,34)" stroke-opacity="1" stroke-width="2" d=" M13,0 C13,0 -13,0 -13,0"></path></g><g id="l_d_4697" opacity="1" transform="matrix(1,0,0,1,49,31)"><path id="l_d_4698" fill="rgb(0,0,0)" fill-opacity="1" d=" M0,-1 C0.5519999861717224,-1 1,-0.5519999861717224 1,0 C1,0.5519999861717224 0.5519999861717224,1 0,1 C-0.5519999861717224,1 -1,0.5519999861717224 -1,0 C-1,-0.5519999861717224 -0.5519999861717224,-1 0,-1z"></path></g><g id="l_d_4699" opacity="1" transform="matrix(1,0,0,1,43,31)"><path id="l_d_4700" fill="rgb(0,0,0)" fill-opacity="1" d=" M0,-1 C0.5519999861717224,-1 1,-0.5519999861717224 1,0 C1,0.5519999861717224 0.5519999861717224,1 0,1 C-0.5519999861717224,1 -1,0.5519999861717224 -1,0 C-1,-0.5519999861717224 -0.5519999861717224,-1 0,-1z"></path></g><g id="l_d_4701" opacity="1" transform="matrix(1,0,0,1,37,31)"><path id="l_d_4702" fill="rgb(0,0,0)" fill-opacity="1" d=" M0,-1 C0.5519999861717224,-1 1,-0.5519999861717224 1,0 C1,0.5519999861717224 0.5519999861717224,1 0,1 C-0.5519999861717224,1 -1,0.5519999861717224 -1,0 C-1,-0.5519999861717224 -0.5519999861717224,-1 0,-1z"></path></g><g id="l_d_4703" opacity="1" transform="matrix(1,0,0,1,31,31)"><path id="l_d_4704" fill="rgb(0,0,0)" fill-opacity="1" d=" M0,-1 C0.5519999861717224,-1 1,-0.5519999861717224 1,0 C1,0.5519999861717224 0.5519999861717224,1 0,1 C-0.5519999861717224,1 -1,0.5519999861717224 -1,0 C-1,-0.5519999861717224 -0.5519999861717224,-1 0,-1z"></path></g></g><g id="l_d_4670" mask="url(#__lottie_element_2087_1)" style="display: none;"><g id="l_d_4669" transform="matrix(1,0,0,1,-23.5,-17.5)" opacity="1"><g id="l_d_4673" opacity="1" transform="matrix(1,0,0,1,40,40)"></g><g id="l_d_4674" opacity="1" transform="matrix(1,0,0,1,40,40)"><path id="l_d_4675" stroke-linecap="butt" stroke-linejoin="miter" fill-opacity="0" stroke-miterlimit="4" stroke="rgb(34,34,34)" stroke-opacity="1" stroke-width="2" d=" M-12,-13 C-12,-13 12,-13 12,-13 C12.552000045776367,-13 13,-12.552000045776367 13,-12 C13,-12 13,12 13,12 C13,12.552000045776367 12.552000045776367,13 12,13 C12,13 -12,13 -12,13 C-12.552000045776367,13 -13,12.552000045776367 -13,12 C-13,12 -13,-12 -13,-12 C-13,-12.552000045776367 -12.552000045776367,-13 -12,-13z"></path></g><g id="l_d_4676" opacity="1" transform="matrix(1,0,0,1,40,35)"><path id="l_d_4677" stroke-linecap="butt" stroke-linejoin="miter" fill-opacity="0" stroke-miterlimit="4" stroke="rgb(34,34,34)" stroke-opacity="1" stroke-width="2" d=" M13,0 C13,0 -13,0 -13,0"></path></g><g id="l_d_4678" opacity="1" transform="matrix(1,0,0,1,49,31)"><path id="l_d_4679" fill="rgb(0,0,0)" fill-opacity="1" d=" M0,-1 C0.5519999861717224,-1 1,-0.5519999861717224 1,0 C1,0.5519999861717224 0.5519999861717224,1 0,1 C-0.5519999861717224,1 -1,0.5519999861717224 -1,0 C-1,-0.5519999861717224 -0.5519999861717224,-1 0,-1z"></path></g><g id="l_d_4680" opacity="1" transform="matrix(1,0,0,1,43,31)"><path id="l_d_4681" fill="rgb(0,0,0)" fill-opacity="1" d=" M0,-1 C0.5519999861717224,-1 1,-0.5519999861717224 1,0 C1,0.5519999861717224 0.5519999861717224,1 0,1 C-0.5519999861717224,1 -1,0.5519999861717224 -1,0 C-1,-0.5519999861717224 -0.5519999861717224,-1 0,-1z"></path></g><g id="l_d_4682" opacity="1" transform="matrix(1,0,0,1,37,31)"><path id="l_d_4683" fill="rgb(0,0,0)" fill-opacity="1" d=" M0,-1 C0.5519999861717224,-1 1,-0.5519999861717224 1,0 C1,0.5519999861717224 0.5519999861717224,1 0,1 C-0.5519999861717224,1 -1,0.5519999861717224 -1,0 C-1,-0.5519999861717224 -0.5519999861717224,-1 0,-1z"></path></g><g id="l_d_4684" opacity="1" transform="matrix(1,0,0,1,31,31)"><path id="l_d_4685" fill="rgb(0,0,0)" fill-opacity="1" d=" M0,-1 C0.5519999861717224,-1 1,-0.5519999861717224 1,0 C1,0.5519999861717224 0.5519999861717224,1 0,1 C-0.5519999861717224,1 -1,0.5519999861717224 -1,0 C-1,-0.5519999861717224 -0.5519999861717224,-1 0,-1z"></path></g></g></g><g id="l_d_4655" mask="url(#__lottie_element_2081_1)" style="display: none;"><g id="l_d_4654" transform="matrix(1,0,0,1,-23.5,-15.999000549316406)" opacity="1"><g id="l_d_4658" opacity="1" transform="matrix(1,0,0,1,33.5,43.5)"><path id="l_d_4659" stroke-linecap="butt" stroke-linejoin="round" fill-opacity="0" stroke="rgb(34,34,34)" stroke-opacity="1" stroke-width="2" d=" M1.4390000104904175,-5.216000080108643 C1.4390000104904175,-5.216000080108643 11.713000297546387,-5.216000080108643 11.713000297546387,-5.216000080108643 C14.218000411987305,-5.216000080108643 16.30500030517578,-3.2950000762939453 16.51300048828125,-0.7990000247955322 C16.51300048828125,-0.7990000247955322 16.614999771118164,0.42800000309944153 16.614999771118164,0.42800000309944153 C16.75,2.0480000972747803 15.545000076293945,3.4719998836517334 13.925000190734863,3.6070001125335693 C13.843999862670898,3.614000082015991 13.762999534606934,3.617000102996826 13.680999755859375,3.617000102996826 C13.680999755859375,3.617000102996826 -0.5289999842643738,3.617000102996826 -0.5289999842643738,3.617000102996826 C-2.1549999713897705,3.617000102996826 -3.4730000495910645,2.2990000247955322 -3.4730000495910645,0.6729999780654907 C-3.4730000495910645,0.5910000205039978 -3.4700000286102295,0.5090000033378601 -3.4630000591278076,0.42800000309944153 C-3.4630000591278076,0.42800000309944153 -3.3610000610351562,-0.7990000247955322 -3.3610000610351562,-0.7990000247955322 C-3.1530001163482666,-3.2950000762939453 -1.065999984741211,-5.216000080108643 1.4390000104904175,-5.216000080108643z M5.104000091552734,-5.216000080108643 C5.104000091552734,-5.216000080108643 7.311999797821045,-1.534999966621399 7.311999797821045,-1.534999966621399 M9.520000457763672,-5.216000080108643 C9.520000457763672,-5.216000080108643 11.727999687194824,-1.534999966621399 11.727999687194824,-1.534999966621399 M0.6880000233650208,-5.216000080108643 C0.6880000233650208,-5.216000080108643 2.8959999084472656,-1.534999966621399 2.8959999084472656,-1.534999966621399"></path></g></g></g><g id="l_d_4630" style="display: block;" transform="matrix(1,0,0,1,-23.5,-17.5)" opacity="1"><g id="l_d_4634" opacity="1" transform="matrix(1,0,0,1,40,40)"></g><g id="l_d_4635" opacity="1" transform="matrix(1,0,0,1,40,40)"><path id="l_d_4636" stroke-linecap="butt" stroke-linejoin="miter" fill-opacity="0" stroke-miterlimit="4" stroke="rgb(34,34,34)" stroke-opacity="1" stroke-width="2" d=" M-12,-13 C-12,-13 12,-13 12,-13 C12.552000045776367,-13 13,-12.552000045776367 13,-12 C13,-12 13,12 13,12 C13,12.552000045776367 12.552000045776367,13 12,13 C12,13 -12,13 -12,13 C-12.552000045776367,13 -13,12.552000045776367 -13,12 C-13,12 -13,-12 -13,-12 C-13,-12.552000045776367 -12.552000045776367,-13 -12,-13z"></path></g><g id="l_d_4637" opacity="1" transform="matrix(1,0,0,1,40,35)"><path id="l_d_4638" stroke-linecap="butt" stroke-linejoin="miter" fill-opacity="0" stroke-miterlimit="4" stroke="rgb(34,34,34)" stroke-opacity="1" stroke-width="2" d=" M13,0 C13,0 -13,0 -13,0"></path></g><g id="l_d_4639" opacity="1" transform="matrix(1,0,0,1,49,31)"><path id="l_d_4640" fill="rgb(0,0,0)" fill-opacity="1" d=" M0,-1 C0.5519999861717224,-1 1,-0.5519999861717224 1,0 C1,0.5519999861717224 0.5519999861717224,1 0,1 C-0.5519999861717224,1 -1,0.5519999861717224 -1,0 C-1,-0.5519999861717224 -0.5519999861717224,-1 0,-1z"></path></g><g id="l_d_4641" opacity="1" transform="matrix(1,0,0,1,43,31)"><path id="l_d_4642" fill="rgb(0,0,0)" fill-opacity="1" d=" M0,-1 C0.5519999861717224,-1 1,-0.5519999861717224 1,0 C1,0.5519999861717224 0.5519999861717224,1 0,1 C-0.5519999861717224,1 -1,0.5519999861717224 -1,0 C-1,-0.5519999861717224 -0.5519999861717224,-1 0,-1z"></path></g><g id="l_d_4643" opacity="1" transform="matrix(1,0,0,1,37,31)"><path id="l_d_4644" fill="rgb(0,0,0)" fill-opacity="1" d=" M0,-1 C0.5519999861717224,-1 1,-0.5519999861717224 1,0 C1,0.5519999861717224 0.5519999861717224,1 0,1 C-0.5519999861717224,1 -1,0.5519999861717224 -1,0 C-1,-0.5519999861717224 -0.5519999861717224,-1 0,-1z"></path></g><g id="l_d_4645" opacity="1" transform="matrix(1,0,0,1,31,31)"><path id="l_d_4646" fill="rgb(0,0,0)" fill-opacity="1" d=" M0,-1 C0.5519999861717224,-1 1,-0.5519999861717224 1,0 C1,0.5519999861717224 0.5519999861717224,1 0,1 C-0.5519999861717224,1 -1,0.5519999861717224 -1,0 C-1,-0.5519999861717224 -0.5519999861717224,-1 0,-1z"></path></g></g><g id="l_d_4622" style="display: block;" transform="matrix(1,0,0,1,-23.5,-17.5)" opacity="1"><g id="l_d_4626" opacity="1" transform="matrix(1,0,0,1,40,44)"><path id="l_d_4627" stroke-linecap="butt" stroke-linejoin="miter" fill-opacity="0" stroke-miterlimit="4" stroke="rgb(34,34,34)" stroke-opacity="1" stroke-width="2" d="M0 0"></path></g><g id="l_d_4628" opacity="1" transform="matrix(1,0,0,1,40,40)"><path id="l_d_4629" stroke-linecap="butt" stroke-linejoin="miter" fill-opacity="0" stroke-miterlimit="4" stroke="rgb(34,34,34)" stroke-opacity="1" stroke-width="2" d=" M-9,-1 C-9,-1 9,-1 9,-1 C9,-1 9,9 9,9 C9,9 -9,9 -9,9 C-9,9 -9,-1 -9,-1z M-12,-4.997000217437744 C-12,-4.997000217437744 12,-4.997000217437744 12,-4.997000217437744 C12.552000045776367,-4.997000217437744 13,-4.548999786376953 13,-3.996999979019165 C13,-3.996999979019165 13,12 13,12 C13,12.552000045776367 12.552000045776367,13 12,13 C12,13 -12,13 -12,13 C-12.552000045776367,13 -13,12.552000045776367 -13,12 C-13,12 -13,-3.996999979019165 -13,-3.996999979019165 C-13,-4.548999786376953 -12.552000045776367,-4.997000217437744 -12,-4.997000217437744z"></path></g></g><g id="l_d_4614" transform="matrix(0.8568664789199829,0,0,0.8568664789199829,-17.774658203125,-11.774658203125)" opacity="1" style="display: none;"><g id="l_d_4618" opacity="1" transform="matrix(1,0,0,1,40,44)"><path id="l_d_4619" stroke-linecap="butt" stroke-linejoin="miter" fill-opacity="0" stroke-miterlimit="4" stroke="rgb(34,34,34)" stroke-opacity="1" stroke-width="2" d=" M-9,-5 C-9,-5 9,-5 9,-5 C9,-5 9,5 9,5 C9,5 -9,5 -9,5 C-9,5 -9,-5 -9,-5z"></path></g><g id="l_d_4620" opacity="1" transform="matrix(1,0,0,1,40,35)"><path id="l_d_4621" stroke-linecap="butt" stroke-linejoin="miter" fill-opacity="0" stroke-miterlimit="4" stroke="rgb(34,34,34)" stroke-opacity="1" stroke-width="2" d=" M13,0 C13,0 -13,0 -13,0"></path></g></g></g></svg>