<svg id="l_d_2873" xmlns="http://www.w3.org/2000/svg" xmlns:xlink="http://www.w3.org/1999/xlink" viewBox="0 0 35 35" width="35" height="35" preserveAspectRatio="xMidYMid meet" style="width: 100%; height: 100%; transform: translate3d(0px, 0px, 0px); content-visibility: visible;"><defs id="l_d_2874"><clipPath id="__lottie_element_1294"><rect id="l_d_2877" width="35" height="35" x="0" y="0"></rect></clipPath><g id="__lottie_element_1296"><g id="l_d_2878" transform="matrix(1,0,0,1,-0.6140003204345703,-0.5790004730224609)" opacity="1" style="display: block;"><g id="l_d_2883" opacity="1" transform="matrix(1,0,0,1,18.000999450683594,18.04400062561035)"><path id="l_d_2884" stroke-linecap="round" stroke-linejoin="round" fill-opacity="0" stroke="rgb(34,34,34)" stroke-opacity="1" stroke-width="2" d=" M-13.00100040435791,-2.5169999599456787 C-13.00100040435791,-2.5169999599456787 -13.010000228881836,11.147000312805176 -13.010000228881836,11.147000312805176 C-13.010000228881836,11.711000442504883 -12.553000450134277,12.168999671936035 -11.98799991607666,12.168999671936035 C-11.98799991607666,12.168999671936035 11.970999717712402,12.168999671936035 11.970999717712402,12.168999671936035 C12.53499984741211,12.168999671936035 12.991999626159668,11.711000442504883 12.991999626159668,11.147000312805176 C12.991999626159668,11.147000312805176 13.00100040435791,-2.5350000858306885 13.00100040435791,-2.5350000858306885 C13.00100040435791,-2.809000015258789 12.876999855041504,-3.068000078201294 12.663999557495117,-3.239000082015991 C12.663999557495117,-3.239000082015991 1.2120000123977661,-12.45199966430664 1.2120000123977661,-12.45199966430664 C0.47600001096725464,-13.043999671936035 -0.574999988079071,-13.041999816894531 -1.309000015258789,-12.446000099182129 C-1.309000015258789,-12.446000099182129 -12.666999816894531,-3.2190001010894775 -12.666999816894531,-3.2190001010894775 C-12.878000259399414,-3.046999931335449 -13.00100040435791,-2.7890000343322754 -13.00100040435791,-2.5169999599456787z"></path><path id="l_d_2885" fill="rgb(255,0,0)" fill-opacity="1" d=" M-13.00100040435791,-2.5169999599456787 C-13.00100040435791,-2.5169999599456787 -13.010000228881836,11.147000312805176 -13.010000228881836,11.147000312805176 C-13.010000228881836,11.711000442504883 -12.553000450134277,12.168999671936035 -11.98799991607666,12.168999671936035 C-11.98799991607666,12.168999671936035 11.970999717712402,12.168999671936035 11.970999717712402,12.168999671936035 C12.53499984741211,12.168999671936035 12.991999626159668,11.711000442504883 12.991999626159668,11.147000312805176 C12.991999626159668,11.147000312805176 13.00100040435791,-2.5350000858306885 13.00100040435791,-2.5350000858306885 C13.00100040435791,-2.809000015258789 12.876999855041504,-3.068000078201294 12.663999557495117,-3.239000082015991 C12.663999557495117,-3.239000082015991 1.2120000123977661,-12.45199966430664 1.2120000123977661,-12.45199966430664 C0.47600001096725464,-13.043999671936035 -0.574999988079071,-13.041999816894531 -1.309000015258789,-12.446000099182129 C-1.309000015258789,-12.446000099182129 -12.666999816894531,-3.2190001010894775 -12.666999816894531,-3.2190001010894775 C-12.878000259399414,-3.046999931335449 -13.00100040435791,-2.7890000343322754 -13.00100040435791,-2.5169999599456787z"></path></g></g></g><clipPath id="__lottie_element_1300"><path id="l_d_2889" d="M0,0 L80,0 L80,80 L0,80z"></path></clipPath><g id="__lottie_element_1307"><g id="l_d_2898" transform="matrix(1,0,0,1,26.000001907348633,25.876001358032227)" opacity="1" style="display: block;"><g id="l_d_2903" opacity="1" transform="matrix(1,0,0,1,19.663000106811523,21.152000427246094)"><path id="l_d_2904" fill="rgb(241,0,0)" fill-opacity="1" d=" M2.9600000381469727,-0.8069999814033508 C3.5989999771118164,-1.5160000324249268 4,-2.444999933242798 4,-3.4730000495910645 C4,-5.678999900817871 2.2060000896453857,-7.4730000495910645 0,-7.4730000495910645 C-2.2060000896453857,-7.4730000495910645 -4,-5.678999900817871 -4,-3.4730000495910645 C-4,-2.444999933242798 -3.5999999046325684,-1.5160000324249268 -2.9609999656677246,-0.8069999814033508 C-5.3429999351501465,0.3109999895095825 -7,2.7260000705718994 -7,5.5269999504089355 C-7,5.5269999504089355 -7,7.5269999504089355 -7,7.5269999504089355 C-7,7.5269999504089355 -5,7.5269999504089355 -5,7.5269999504089355 C-5,7.5269999504089355 0.25,9.027000427246094 0.25,9.027000427246094 C0.25,6.611000061035156 1.5980000495910645,9.59000015258789 3.880000114440918,9.128000259399414 C3.880000114440918,9.128000259399414 5.630000114440918,4.874000072479248 5.630000114440918,4.874000072479248 C5.0329999923706055,4.5279998779296875 -1.9989999532699585,-2.734999895095825 -1.9989999532699585,-3.4749999046325684 C-1.9989999532699585,-4.578999996185303 -1.1039999723434448,-5.473999977111816 0,-5.473999977111816 C1.1030000448226929,-5.473999977111816 1.9980000257492065,-4.578999996185303 1.9980000257492065,-3.4749999046325684 C1.9980000257492065,-2.740000009536743 1.5959999561309814,-2.1040000915527344 1.0049999952316284,-1.7569999694824219 C1.0049999952316284,-1.7569999694824219 1.0049999952316284,0.6290000081062317 1.0049999952316284,0.6290000081062317 C3.2820000648498535,1.0950000286102295 5,3.114000082015991 5,5.5269999504089355 C5,5.5269999504089355 5,7.5269999504089355 5,7.5269999504089355 C5,7.5269999504089355 7,7.5269999504089355 7,7.5269999504089355 C7,7.5269999504089355 7,5.5269999504089355 7,5.5269999504089355 C7,2.7260000705718994 5.3420000076293945,0.3109999895095825 2.9600000381469727,-0.8069999814033508z"></path></g></g></g><filter id="__lottie_element_1314" filterUnits="objectBoundingBox" x="0%" y="0%" width="100%" height="100%"><feComponentTransfer id="l_d_2914" in="SourceGraphic"><feFuncA id="l_d_2915" type="table" tableValues="1.0 0.0"></feFuncA></feComponentTransfer></filter><mask id="__lottie_element_1307_2" mask-type="alpha"><g id="l_d_2912" filter="url(#__lottie_element_1314)"><rect id="l_d_2916" width="80" height="80" x="0" y="0" fill="#ffffff" opacity="0"></rect><use id="l_d_2917" xlink:href="#__lottie_element_1307"></use></g></mask><mask id="__lottie_element_1296_1" mask-type="alpha"><use id="l_d_2919" xlink:href="#__lottie_element_1296"></use></mask></defs><g id="l_d_2875" clip-path="url(#__lottie_element_1294)"><g id="l_d_2920" transform="matrix(1,0,0,1,-0.6140003204345703,-0.5790004730224609)" opacity="1" style="display: block;"><g id="l_d_2924" opacity="1" transform="matrix(1,0,0,1,18.000999450683594,18.04400062561035)"><path id="l_d_2925" stroke-linecap="round" stroke-linejoin="round" fill-opacity="0" stroke="rgb(34,34,34)" stroke-opacity="1" stroke-width="2" d=" M-13.00100040435791,-2.5169999599456787 C-13.00100040435791,-2.5169999599456787 -13.00100040435791,12.022000312805176 -13.00100040435791,12.022000312805176 C-13.00100040435791,12.586000442504883 -12.543999671936035,13.043999671936035 -11.979000091552734,13.043999671936035 C-11.979000091552734,13.043999671936035 11.979999542236328,13.043999671936035 11.979999542236328,13.043999671936035 C12.543999671936035,13.043999671936035 13.00100040435791,12.586000442504883 13.00100040435791,12.022000312805176 C13.00100040435791,12.022000312805176 13.00100040435791,-2.5350000858306885 13.00100040435791,-2.5350000858306885 C13.00100040435791,-2.809000015258789 12.876999855041504,-3.068000078201294 12.663999557495117,-3.239000082015991 C12.663999557495117,-3.239000082015991 1.2120000123977661,-12.45199966430664 1.2120000123977661,-12.45199966430664 C0.47600001096725464,-13.043999671936035 -0.574999988079071,-13.041999816894531 -1.309000015258789,-12.446000099182129 C-1.309000015258789,-12.446000099182129 -12.666999816894531,-3.2190001010894775 -12.666999816894531,-3.2190001010894775 C-12.878000259399414,-3.046999931335449 -13.00100040435791,-2.7890000343322754 -13.00100040435791,-2.5169999599456787z"></path></g></g><g id="l_d_2887" mask="url(#__lottie_element_1296_1)" style="display: block;"><g id="l_d_2886" clip-path="url(#__lottie_element_1300)" transform="matrix(1,0,0,1,-22.625,-22.5)" opacity="1"><g id="l_d_2906" mask="url(#__lottie_element_1307_2)" style="display: block;"><g id="l_d_2905" transform="matrix(1,0,0,1,26,25.876001358032227)" opacity="1"><g id="l_d_2909" opacity="1" transform="matrix(1,0,0,1,8.440999984741211,21.152000427246094)"><path id="l_d_2910" fill="rgb(34,34,34)" fill-opacity="1" d=" M2.9600000381469727,-0.8069999814033508 C3.5989999771118164,-1.5160000324249268 4,-2.444999933242798 4,-3.4730000495910645 C4,-5.678999900817871 2.2060000896453857,-7.4730000495910645 0,-7.4730000495910645 C-2.2060000896453857,-7.4730000495910645 -4,-5.678999900817871 -4,-3.4730000495910645 C-4,-2.444999933242798 -3.5999999046325684,-1.5160000324249268 -2.9609999656677246,-0.8069999814033508 C-5.3429999351501465,0.3109999895095825 -7,2.7260000705718994 -7,5.5269999504089355 C-7,5.5269999504089355 -7,7.5269999504089355 -7,7.5269999504089355 C-7,7.5269999504089355 -5,7.5269999504089355 -5,7.5269999504089355 C-5,7.5269999504089355 -5,5.5269999504089355 -5,5.5269999504089355 C-5,3.1110000610351562 -3.2769999504089355,1.090000033378601 -0.9950000047683716,0.628000020980835 C-0.9950000047683716,0.628000020980835 -0.9950000047683716,-1.7510000467300415 -0.9950000047683716,-1.7510000467300415 C-1.5920000076293945,-2.0969998836517334 -1.9989999532699585,-2.734999895095825 -1.9989999532699585,-3.4749999046325684 C-1.9989999532699585,-4.578999996185303 -1.1039999723434448,-5.473999977111816 0,-5.473999977111816 C1.1030000448226929,-5.473999977111816 1.9980000257492065,-4.578999996185303 1.9980000257492065,-3.4749999046325684 C1.9980000257492065,-2.740000009536743 1.5959999561309814,-2.1040000915527344 1.0049999952316284,-1.7569999694824219 C1.0049999952316284,-1.7569999694824219 1.0049999952316284,0.6290000081062317 1.0049999952316284,0.6290000081062317 C3.2820000648498535,1.0950000286102295 5,3.114000082015991 5,5.5269999504089355 C5,5.5269999504089355 5,7.5269999504089355 5,7.5269999504089355 C5,7.5269999504089355 7,7.5269999504089355 7,7.5269999504089355 C7,7.5269999504089355 7,5.5269999504089355 7,5.5269999504089355 C7,2.7260000705718994 5.3420000076293945,0.3109999895095825 2.9600000381469727,-0.8069999814033508z"></path></g></g></g><g id="l_d_2892" transform="matrix(1,0,0,1,26.000001907348633,25.876001358032227)" opacity="1" style="display: block;"><g id="l_d_2896" opacity="1" transform="matrix(1,0,0,1,19.663000106811523,21.152000427246094)"><path id="l_d_2897" fill="rgb(34,34,34)" fill-opacity="1" d=" M2.9600000381469727,-0.8069999814033508 C3.5989999771118164,-1.5160000324249268 4,-2.444999933242798 4,-3.4730000495910645 C4,-5.678999900817871 2.2060000896453857,-7.4730000495910645 0,-7.4730000495910645 C-2.2060000896453857,-7.4730000495910645 -4,-5.678999900817871 -4,-3.4730000495910645 C-4,-2.444999933242798 -3.5999999046325684,-1.5160000324249268 -2.9609999656677246,-0.8069999814033508 C-5.3429999351501465,0.3109999895095825 -7,2.7260000705718994 -7,5.5269999504089355 C-7,5.5269999504089355 -7,7.5269999504089355 -7,7.5269999504089355 C-7,7.5269999504089355 -5,7.5269999504089355 -5,7.5269999504089355 C-5,7.5269999504089355 -5,5.5269999504089355 -5,5.5269999504089355 C-5,3.1110000610351562 -3.2769999504089355,1.090000033378601 -0.9950000047683716,0.628000020980835 C-0.9950000047683716,0.628000020980835 -0.9950000047683716,-1.7510000467300415 -0.9950000047683716,-1.7510000467300415 C-1.5920000076293945,-2.0969998836517334 -1.9989999532699585,-2.734999895095825 -1.9989999532699585,-3.4749999046325684 C-1.9989999532699585,-4.578999996185303 -1.1039999723434448,-5.473999977111816 0,-5.473999977111816 C1.1030000448226929,-5.473999977111816 1.9980000257492065,-4.578999996185303 1.9980000257492065,-3.4749999046325684 C1.9980000257492065,-2.740000009536743 1.5959999561309814,-2.1040000915527344 1.0049999952316284,-1.7569999694824219 C1.0049999952316284,-1.7569999694824219 1.0049999952316284,0.6290000081062317 1.0049999952316284,0.6290000081062317 C3.2820000648498535,1.0950000286102295 5,3.114000082015991 5,5.5269999504089355 C5,5.5269999504089355 5,7.5269999504089355 5,7.5269999504089355 C5,7.5269999504089355 7,7.5269999504089355 7,7.5269999504089355 C7,7.5269999504089355 7,5.5269999504089355 7,5.5269999504089355 C7,2.7260000705718994 5.3420000076293945,0.3109999895095825 2.9600000381469727,-0.8069999814033508z"></path></g></g></g></g></g></svg>