<svg xmlns="http://www.w3.org/2000/svg" viewBox="0 0 32 32" aria-hidden="true" role="presentation" focusable="false" style="display: block; height: 24px; width: 24px; fill: #222222;"><path d="M22 7a5 5 0 0 1 3.4 8.67 9 9 0 0 1 5.6 8.06V24h-2a7 7 0 0 0-6-6.93v-2.24a3 3 0 1 0-4-3V12l.08.06a5 5 0 0 1 .32 7.6 9 9 0 0 1 5.6 8.07V28h-2a7 7 0 0 0-6-6.93v-2.24a3 3 0 1 0-2 0v2.24a7 7 0 0 0-6 6.69V28H7a9 9 0 0 1 5.6-8.34 4.98 4.98 0 0 1 .32-7.6L13 12a3 3 0 1 0-4 2.83v2.24a7 7 0 0 0-6 6.69V24H1a9 9 0 0 1 5.6-8.34A4.98 4.98 0 0 1 10 7a5 5 0 0 1 4.92 4.12 4.98 4.98 0 0 1 2.16 0A5 5 0 0 1 22 7z"></path></svg>