<svg id="l_d_4579" xmlns="http://www.w3.org/2000/svg" xmlns:xlink="http://www.w3.org/1999/xlink" viewBox="0 0 45 45" width="45" height="45" preserveAspectRatio="xMidYMid meet" style="width: 100%; height: 100%; transform: translate3d(0px, 0px, 0px); content-visibility: visible;"><defs id="l_d_4580"><clipPath id="__lottie_element_2055"><rect id="l_d_4583" width="45" height="45" x="0" y="0"></rect></clipPath></defs><g id="l_d_4581" clip-path="url(#__lottie_element_2055)"><g id="l_d_4584" transform="matrix(1.3179999589920044,0,0,1.3179999589920044,16.875,22.625)" opacity="1" style="display: block;"><g id="l_d_4588" opacity="1" transform="matrix(1,0,0,1,0,0)"><path id="l_d_4589" fill="rgb(34,34,34)" fill-opacity="1" d=" M-2.25,6.75 C-2.25,6.75 2.25,6.75 2.25,6.75 C2.25,6.75 2.25,8.25 2.25,8.25 C2.25,8.25 -2.25,8.25 -2.25,8.25 C-2.25,8.25 -2.25,6.75 -2.25,6.75z M-5.25,8.25 C-5.25,8.25 -5.25,9.75 -5.25,9.75 C-5.25,9.75 5.25,9.75 5.25,9.75 C5.25,9.75 5.25,8.25 5.25,8.25 C5.25,8.25 3.75,8.25 3.75,8.25 C3.75,8.25 3.75,6.75 3.75,6.75 C3.75,6.75 4.561999797821045,6.747000217437744 4.561999797821045,6.747000217437744 C4.561999797821045,6.747000217437744 4.724999904632568,6.743000030517578 4.724999904632568,6.743000030517578 C6.7210001945495605,6.6579999923706055 6.611999988555908,5.836999893188477 4.59499979019165,5.836999893188477 C4.59499979019165,5.836999893188477 -4.816999912261963,5.843999862670898 -4.816999912261963,5.843999862670898 C-6.813000202178955,5.928999900817871 -6.704999923706055,6.75 -4.688000202178955,6.75 C-4.688000202178955,6.75 -3.75,6.75 -3.75,6.75 C-3.75,6.75 -3.75,8.25 -3.75,8.25 C-3.75,8.25 -5.25,8.25 -5.25,8.25z"></path></g></g><g id="l_d_4602" style="display: none;" transform="matrix(1.0422078371047974,0,0,1.0422078371047974,16.875,22.625)" opacity="1"><g id="l_d_4606" opacity="1" transform="matrix(1,0,0,1,0,0)"><path id="l_d_4607" fill="rgb(34,34,34)" fill-opacity="1" d=" M-7.814000129699707,-8.694000244140625 C-7.814000129699707,-8.694000244140625 7.892000198364258,-8.694000244140625 7.892000198364258,-8.694000244140625 C7.892000198364258,-8.694000244140625 8.02400016784668,-8.6899995803833 8.02400016784668,-8.6899995803833 C9.204999923706055,-8.621999740600586 10.142000198364258,-7.642000198364258 10.142000198364258,-6.443999767303467 C10.142000198364258,-6.443999767303467 10.142000198364258,3.260999917984009 10.142000198364258,3.260999917984009 C10.142000198364258,3.260999917984009 10.137999534606934,3.3940000534057617 10.137999534606934,3.3940000534057617 C10.069999694824219,4.574999809265137 9.09000015258789,5.511000156402588 7.892000198364258,5.511000156402588 C7.892000198364258,5.511000156402588 -7.814000129699707,5.511000156402588 -7.814000129699707,5.511000156402588 C-7.814000129699707,5.511000156402588 -7.946000099182129,5.507999897003174 -7.946000099182129,5.507999897003174 C-9.126999855041504,5.440000057220459 -10.064000129699707,4.459000110626221 -10.064000129699707,3.260999917984009 C-10.064000129699707,3.260999917984009 -10.064000129699707,-6.443999767303467 -10.064000129699707,-6.443999767303467 C-10.064000129699707,-6.443999767303467 -10.0600004196167,-6.576000213623047 -10.0600004196167,-6.576000213623047 C-9.991999626159668,-7.756999969482422 -9.01200008392334,-8.694000244140625 -7.814000129699707,-8.694000244140625z"></path></g></g><g id="l_d_4596" style="display: none;" transform="matrix(1.3179999589920044,0,0,1.3179999589920044,16.875,22.625)" opacity="1"><g id="l_d_4600" opacity="1" transform="matrix(1,0,0,1,0,0)"><path id="l_d_4601" fill="rgb(34,34,34)" fill-opacity="1" d=" M-7.5,-8.25 C-8.697999954223633,-8.25 -9.678000450134277,-7.313000202178955 -9.746000289916992,-6.131999969482422 C-9.746000289916992,-6.131999969482422 -9.75,-6 -9.75,-6 C-9.75,-6 -9.75,3 -9.75,3 C-9.75,4.197999954223633 -8.812999725341797,5.177999973297119 -7.631999969482422,5.245999813079834 C-7.631999969482422,5.245999813079834 -7.5,5.25 -7.5,5.25 C-7.5,5.25 -0.7570000290870667,5.25 -0.7570000290870667,5.25 C-0.7570000290870667,5.25 -0.1459999978542328,5.25 -0.1459999978542328,5.25 C-0.1459999978542328,5.25 1.0429999828338623,5.25 1.0429999828338623,5.25 C1.0429999828338623,5.25 7.5,5.25 7.5,5.25 C8.697999954223633,5.25 9.678000450134277,4.313000202178955 9.746000289916992,3.131999969482422 C9.746000289916992,3.131999969482422 9.75,3 9.75,3 C9.75,3 9.75,-6 9.75,-6 C9.75,-7.197999954223633 8.812999725341797,-8.178000450134277 7.631999969482422,-8.246000289916992 C7.631999969482422,-8.246000289916992 7.5,-8.25 7.5,-8.25 C7.5,-8.25 0.5730000138282776,-8.241000175476074 0.5730000138282776,-8.241000175476074 C0.5730000138282776,-8.241000175476074 -0.4180000126361847,-8.241000175476074 -0.4180000126361847,-8.241000175476074 C-0.4180000126361847,-8.241000175476074 -1.2089999914169312,-8.241000175476074 -1.2089999914169312,-8.241000175476074 C-1.2089999914169312,-8.241000175476074 -7.5,-8.25 -7.5,-8.25z M-7.875,-8.428999900817871 C-7.875,-8.428999900817871 7.8379998207092285,-8.440999984741211 7.8379998207092285,-8.440999984741211 C7.8379998207092285,-8.440999984741211 7.9710001945495605,-8.437999725341797 7.9710001945495605,-8.437999725341797 C9.152000427246094,-8.369999885559082 10.088000297546387,-7.353000164031982 10.088000297546387,-6.15500020980835 C10.088000297546387,-6.15500020980835 10.0649995803833,3.553999900817871 10.0649995803833,3.553999900817871 C10.0649995803833,3.553999900817871 10.060999870300293,3.686000108718872 10.060999870300293,3.686000108718872 C9.993000030517578,4.867000102996826 9.012999534606934,5.803999900817871 7.815000057220459,5.803999900817871 C7.815000057220459,5.803999900817871 -7.89900016784668,5.815999984741211 -7.89900016784668,5.815999984741211 C-7.89900016784668,5.815999984741211 -8.031000137329102,5.811999797821045 -8.031000137329102,5.811999797821045 C-9.211999893188477,5.74399995803833 -10.14900016784668,4.763999938964844 -10.14900016784668,3.565999984741211 C-10.14900016784668,3.565999984741211 -10.125,-6.14300012588501 -10.125,-6.14300012588501 C-10.125,-6.14300012588501 -10.121000289916992,-6.310999870300293 -10.121000289916992,-6.310999870300293 C-10.053000450134277,-7.492000102996826 -9.072999954223633,-8.428999900817871 -7.875,-8.428999900817871z"></path></g></g><g id="l_d_4590" transform="matrix(1.3179999589920044,0,0,1.3179999589920044,16.875,22.625)" opacity="1" style="display: block;"><g id="l_d_4594" opacity="1" transform="matrix(1,0,0,1,0,0)"><path id="l_d_4595" fill="rgb(34,34,34)" fill-opacity="1" d=" M-7.5,-8.25 C-7.5,-8.25 7.5,-8.25 7.5,-8.25 C7.5,-8.25 7.631999969482422,-8.246000289916992 7.631999969482422,-8.246000289916992 C8.812999725341797,-8.178000450134277 9.75,-7.197999954223633 9.75,-6 C9.75,-6 9.75,3 9.75,3 C9.75,3 9.746000289916992,3.131999969482422 9.746000289916992,3.131999969482422 C9.678000450134277,4.313000202178955 8.697999954223633,5.25 7.5,5.25 C7.5,5.25 -7.5,5.25 -7.5,5.25 C-7.5,5.25 -7.631999969482422,5.245999813079834 -7.631999969482422,5.245999813079834 C-8.812999725341797,5.177999973297119 -9.75,4.197999954223633 -9.75,3 C-9.75,3 -9.75,-6 -9.75,-6 C-9.75,-6 -9.746000289916992,-6.131999969482422 -9.746000289916992,-6.131999969482422 C-9.678000450134277,-7.313000202178955 -8.697999954223633,-8.25 -7.5,-8.25z M3.75,6.75 C3.75,6.75 7.5,6.75 7.5,6.75 C7.5,6.75 7.663000106811523,6.747000217437744 7.663000106811523,6.747000217437744 C9.659000396728516,6.6620001792907715 11.25,5.017000198364258 11.25,3 C11.25,3 11.25,-6 11.25,-6 C11.25,-6 11.246999740600586,-6.163000106811523 11.246999740600586,-6.163000106811523 C11.161999702453613,-8.159000396728516 9.517000198364258,-9.75 7.5,-9.75 C7.5,-9.75 -7.5,-9.75 -7.5,-9.75 C-7.5,-9.75 -7.663000106811523,-9.746999740600586 -7.663000106811523,-9.746999740600586 C-9.659000396728516,-9.661999702453613 -11.25,-8.017000198364258 -11.25,-6 C-11.25,-6 -11.25,3 -11.25,3 C-11.25,3 -11.246999740600586,3.1630001068115234 -11.246999740600586,3.1630001068115234 C-11.161999702453613,5.158999919891357 -9.517000198364258,6.75 -7.5,6.75 C-7.5,6.75 -3.75,6.75 -3.75,6.75 C-3.75,6.75 3.75,6.75 3.75,6.75z"></path></g></g></g></svg>