<svg xmlns="http://www.w3.org/2000/svg" viewBox="0 0 32 32" aria-hidden="true" role="presentation" focusable="false" style="display: block; height: 24px; width: 24px; fill: #222222;"><path d="m16.6 1.2.1.08.08.1L20.48 6H22v2h-2v4h2v2h-1.76l1.65 14H26v2H6v-2h4.11l1.65-14H10v-2h2V8h-2V6h1.52l3.7-4.63a1 1 0 0 1 1.38-.17zM18.23 14h-4.46l-1.65 14h7.76zM16 23a1 1 0 1 1 0 2 1 1 0 0 1 0-2zm0-5a1 1 0 1 1 0 2 1 1 0 0 1 0-2zm-9.54-4.88 1.42 1.42-2.83 2.82-1.41-1.41zm19.08 0 2.82 2.83-1.41 1.41-2.83-2.82zM18 8h-4v4h4zM5 9v2H1V9zm26 0v2h-4V9zM5.05 2.64l2.83 2.82-1.42 1.42-2.82-2.83zm21.9 0 1.41 1.41-2.82 2.83-1.42-1.42zM16 3.6 14.08 6h3.84z"></path></svg>