<svg id="l_d_4729" xmlns="http://www.w3.org/2000/svg" xmlns:xlink="http://www.w3.org/1999/xlink" viewBox="0 0 45 45" width="45" height="45" preserveAspectRatio="xMidYMid meet" style="width: 100%; height: 100%; transform: translate3d(0px, 0px, 0px); content-visibility: visible;"><defs id="l_d_4730"><clipPath id="__lottie_element_2106"><rect id="l_d_4733" width="45" height="45" x="0" y="0"></rect></clipPath><clipPath id="__lottie_element_2108"><path id="l_d_4736" fill="#ffffff" clip-rule="nonzero" d=" M11.722000122070312,2.2880001068115234 C11.722000122070312,2.2880001068115234 -10.972000122070312,2.2880001068115234 -10.972000122070312,2.2880001068115234 C-10.972000122070312,2.2880001068115234 -10.972000122070312,6.083000183105469 -10.972000122070312,6.083000183105469 C-10.972000122070312,6.083000183105469 11.722000122070312,6.083000183105469 11.722000122070312,6.083000183105469 C11.722000122070312,6.083000183105469 11.722000122070312,2.2880001068115234 11.722000122070312,2.2880001068115234" fill-opacity="1"></path><path id="l_d_4737" fill="#ffffff" clip-rule="nonzero" d=" M11.722000122070312,2.2880001068115234 C11.722000122070312,2.2880001068115234 -10.972000122070312,2.2880001068115234 -10.972000122070312,2.2880001068115234 C-10.972000122070312,2.2880001068115234 -10.972000122070312,6.083000183105469 -10.972000122070312,6.083000183105469 C-10.972000122070312,6.083000183105469 11.722000122070312,6.083000183105469 11.722000122070312,6.083000183105469 C11.722000122070312,6.083000183105469 11.722000122070312,2.2880001068115234 11.722000122070312,2.2880001068115234" fill-opacity="1"></path></clipPath><clipPath id="__lottie_element_2111"><path id="l_d_4744" fill="#ffffff" clip-rule="nonzero" d=" M11.722000122070312,2.2880001068115234 C11.722000122070312,2.2880001068115234 -10.972000122070312,2.2880001068115234 -10.972000122070312,2.2880001068115234 C-10.972000122070312,2.2880001068115234 -10.972000122070312,6.083000183105469 -10.972000122070312,6.083000183105469 C-10.972000122070312,6.083000183105469 11.722000122070312,6.083000183105469 11.722000122070312,6.083000183105469 C11.722000122070312,6.083000183105469 11.722000122070312,2.2880001068115234 11.722000122070312,2.2880001068115234" fill-opacity="1"></path><path id="l_d_4745" fill="#ffffff" clip-rule="nonzero" d=" M11.722000122070312,2.2880001068115234 C11.722000122070312,2.2880001068115234 -10.972000122070312,2.2880001068115234 -10.972000122070312,2.2880001068115234 C-10.972000122070312,2.2880001068115234 -10.972000122070312,6.083000183105469 -10.972000122070312,6.083000183105469 C-10.972000122070312,6.083000183105469 11.722000122070312,6.083000183105469 11.722000122070312,6.083000183105469 C11.722000122070312,6.083000183105469 11.722000122070312,2.2880001068115234 11.722000122070312,2.2880001068115234" fill-opacity="1"></path></clipPath><clipPath id="__lottie_element_2114"><path id="l_d_4752" fill="#ffffff" clip-rule="nonzero" d=" M11.722000122070312,2.2880001068115234 C11.722000122070312,2.2880001068115234 -10.972000122070312,2.2880001068115234 -10.972000122070312,2.2880001068115234 C-10.972000122070312,2.2880001068115234 -10.972000122070312,6.083000183105469 -10.972000122070312,6.083000183105469 C-10.972000122070312,6.083000183105469 11.722000122070312,6.083000183105469 11.722000122070312,6.083000183105469 C11.722000122070312,6.083000183105469 11.722000122070312,2.2880001068115234 11.722000122070312,2.2880001068115234" fill-opacity="1"></path><path id="l_d_4753" fill="#ffffff" clip-rule="nonzero" d=" M11.722000122070312,2.2880001068115234 C11.722000122070312,2.2880001068115234 -10.972000122070312,2.2880001068115234 -10.972000122070312,2.2880001068115234 C-10.972000122070312,2.2880001068115234 -10.972000122070312,6.083000183105469 -10.972000122070312,6.083000183105469 C-10.972000122070312,6.083000183105469 11.722000122070312,6.083000183105469 11.722000122070312,6.083000183105469 C11.722000122070312,6.083000183105469 11.722000122070312,2.2880001068115234 11.722000122070312,2.2880001068115234" fill-opacity="1"></path></clipPath><clipPath id="__lottie_element_2117"><path id="l_d_4760" fill="#ffffff" clip-rule="nonzero" d=" M11.722000122070312,2.2880001068115234 C11.722000122070312,2.2880001068115234 -10.972000122070312,2.2880001068115234 -10.972000122070312,2.2880001068115234 C-10.972000122070312,2.2880001068115234 -10.972000122070312,6.083000183105469 -10.972000122070312,6.083000183105469 C-10.972000122070312,6.083000183105469 11.722000122070312,6.083000183105469 11.722000122070312,6.083000183105469 C11.722000122070312,6.083000183105469 11.722000122070312,2.2880001068115234 11.722000122070312,2.2880001068115234" fill-opacity="1"></path><path id="l_d_4761" fill="#ffffff" clip-rule="nonzero" d=" M11.722000122070312,2.2880001068115234 C11.722000122070312,2.2880001068115234 -10.972000122070312,2.2880001068115234 -10.972000122070312,2.2880001068115234 C-10.972000122070312,2.2880001068115234 -10.972000122070312,6.083000183105469 -10.972000122070312,6.083000183105469 C-10.972000122070312,6.083000183105469 11.722000122070312,6.083000183105469 11.722000122070312,6.083000183105469 C11.722000122070312,6.083000183105469 11.722000122070312,2.2880001068115234 11.722000122070312,2.2880001068115234" fill-opacity="1"></path></clipPath><clipPath id="__lottie_element_2120"><path id="l_d_4768" fill="#ffffff" clip-rule="nonzero" d=" M11.722000122070312,2.2880001068115234 C11.722000122070312,2.2880001068115234 -10.972000122070312,2.2880001068115234 -10.972000122070312,2.2880001068115234 C-10.972000122070312,2.2880001068115234 -10.972000122070312,6.083000183105469 -10.972000122070312,6.083000183105469 C-10.972000122070312,6.083000183105469 11.722000122070312,6.083000183105469 11.722000122070312,6.083000183105469 C11.722000122070312,6.083000183105469 11.722000122070312,2.2880001068115234 11.722000122070312,2.2880001068115234" fill-opacity="1"></path><path id="l_d_4769" fill="#ffffff" clip-rule="nonzero" d=" M11.722000122070312,2.2880001068115234 C11.722000122070312,2.2880001068115234 -10.972000122070312,2.2880001068115234 -10.972000122070312,2.2880001068115234 C-10.972000122070312,2.2880001068115234 -10.972000122070312,6.083000183105469 -10.972000122070312,6.083000183105469 C-10.972000122070312,6.083000183105469 11.722000122070312,6.083000183105469 11.722000122070312,6.083000183105469 C11.722000122070312,6.083000183105469 11.722000122070312,2.2880001068115234 11.722000122070312,2.2880001068115234" fill-opacity="1"></path></clipPath><clipPath id="__lottie_element_2123"><path id="l_d_4776" fill="#ffffff" clip-rule="nonzero" d=" M11.722000122070312,2.2880001068115234 C11.722000122070312,2.2880001068115234 -10.972000122070312,2.2880001068115234 -10.972000122070312,2.2880001068115234 C-10.972000122070312,2.2880001068115234 -10.972000122070312,6.083000183105469 -10.972000122070312,6.083000183105469 C-10.972000122070312,6.083000183105469 11.722000122070312,6.083000183105469 11.722000122070312,6.083000183105469 C11.722000122070312,6.083000183105469 11.722000122070312,2.2880001068115234 11.722000122070312,2.2880001068115234" fill-opacity="1"></path><path id="l_d_4777" fill="#ffffff" clip-rule="nonzero" d=" M11.722000122070312,2.2880001068115234 C11.722000122070312,2.2880001068115234 -10.972000122070312,2.2880001068115234 -10.972000122070312,2.2880001068115234 C-10.972000122070312,2.2880001068115234 -10.972000122070312,6.083000183105469 -10.972000122070312,6.083000183105469 C-10.972000122070312,6.083000183105469 11.722000122070312,6.083000183105469 11.722000122070312,6.083000183105469 C11.722000122070312,6.083000183105469 11.722000122070312,2.2880001068115234 11.722000122070312,2.2880001068115234" fill-opacity="1"></path></clipPath><clipPath id="__lottie_element_2126"><path id="l_d_4784" fill="#ffffff" clip-rule="nonzero" d=" M11.722000122070312,2.2880001068115234 C11.722000122070312,2.2880001068115234 -10.972000122070312,2.2880001068115234 -10.972000122070312,2.2880001068115234 C-10.972000122070312,2.2880001068115234 -10.972000122070312,6.083000183105469 -10.972000122070312,6.083000183105469 C-10.972000122070312,6.083000183105469 11.722000122070312,6.083000183105469 11.722000122070312,6.083000183105469 C11.722000122070312,6.083000183105469 11.722000122070312,2.2880001068115234 11.722000122070312,2.2880001068115234" fill-opacity="1"></path><path id="l_d_4785" fill="#ffffff" clip-rule="nonzero" d=" M11.722000122070312,2.2880001068115234 C11.722000122070312,2.2880001068115234 -10.972000122070312,2.2880001068115234 -10.972000122070312,2.2880001068115234 C-10.972000122070312,2.2880001068115234 -10.972000122070312,6.083000183105469 -10.972000122070312,6.083000183105469 C-10.972000122070312,6.083000183105469 11.722000122070312,6.083000183105469 11.722000122070312,6.083000183105469 C11.722000122070312,6.083000183105469 11.722000122070312,2.2880001068115234 11.722000122070312,2.2880001068115234" fill-opacity="1"></path></clipPath></defs><g id="l_d_4731" clip-path="url(#__lottie_element_2106)"><g id="l_d_4808" transform="matrix(1.0000008344650269,0,0,1.0000008344650269,-24.00003433227539,-18.374406814575195)" opacity="1" style="display: block;"><g id="l_d_4812" opacity="1" transform="matrix(1,0,0,1,51,50)"><path id="l_d_4813" stroke-linecap="butt" stroke-linejoin="miter" fill-opacity="0" stroke-miterlimit="4" stroke="rgb(34,34,34)" stroke-opacity="1" stroke-width="2" d=" M-2,-2 C-2,-2 2,-2 2,-2 C2,-2 2,1 2,1 C2,1.5520000457763672 1.5520000457763672,2 1,2 C1,2 -1,2 -1,2 C-1.5520000457763672,2 -2,1.5520000457763672 -2,1 C-2,1 -2,-2 -2,-2 C-2,-2 -2,-2 -2,-2z"></path></g><g id="l_d_4814" opacity="1" transform="matrix(1,0,0,1,29,50)"><path id="l_d_4815" stroke-linecap="butt" stroke-linejoin="miter" fill-opacity="0" stroke-miterlimit="4" stroke="rgb(34,34,34)" stroke-opacity="1" stroke-width="2" d=" M-2,-2 C-2,-2 2,-2 2,-2 C2,-2 2,1 2,1 C2,1.5520000457763672 1.5520000457763672,2 1,2 C1,2 -1,2 -1,2 C-1.5520000457763672,2 -2,1.5520000457763672 -2,1 C-2,1 -2,-2 -2,-2 C-2,-2 -2,-2 -2,-2z"></path></g></g><g id="l_d_4790" transform="matrix(1.0000008344650269,0,0,1.0000008344650269,-24.00003433227539,-19.108909606933594)" opacity="1" style="display: block;"><g id="l_d_4794" opacity="1" transform="matrix(1,0,0,1,40,43)"><path id="l_d_4795" stroke-linecap="butt" stroke-linejoin="miter" fill-opacity="0" stroke-miterlimit="4" stroke="rgb(34,34,34)" stroke-opacity="1" stroke-width="2" d=" M-9,-5 C-9,-5 9,-5 9,-5 C11.208999633789062,-5 13,-3.2090001106262207 13,-1 C13,-1 13,4 13,4 C13,4.552000045776367 12.552000045776367,5 12,5 C12,5 -12,5 -12,5 C-12.552000045776367,5 -13,4.552000045776367 -13,4 C-13,4 -13,-1 -13,-1 C-13,-3.2090001106262207 -11.208999633789062,-5 -9,-5z"></path></g><g id="l_d_4796" opacity="1" transform="matrix(1,0,0,1,49,43)"><path id="l_d_4797" fill="rgb(34,34,34)" fill-opacity="1" d=" M0,-1 C0.5519999861717224,-1 1,-0.5519999861717224 1,0 C1,0.5519999861717224 0.5519999861717224,1 0,1 C-0.5519999861717224,1 -1,0.5519999861717224 -1,0 C-1,-0.5519999861717224 -0.5519999861717224,-1 0,-1z"></path></g><g id="l_d_4798" opacity="1" transform="matrix(1,0,0,1,31,43)"><path id="l_d_4799" fill="rgb(34,34,34)" fill-opacity="1" d=" M0,-1 C0.5519999861717224,-1 1,-0.5519999861717224 1,0 C1,0.5519999861717224 0.5519999861717224,1 0,1 C-0.5519999861717224,1 -1,0.5519999861717224 -1,0 C-1,-0.5519999861717224 -0.5519999861717224,-1 0,-1z"></path></g><g id="l_d_4800" opacity="1" transform="matrix(1,0,0,1,40,34)"><path id="l_d_4801" stroke-linecap="butt" stroke-linejoin="miter" fill-opacity="0" stroke-miterlimit="4" stroke="rgb(34,34,34)" stroke-opacity="1" stroke-width="2" d=" M-7.307000160217285,-4 C-7.307000160217285,-4 7.307000160217285,-4 7.307000160217285,-4 C7.723999977111816,-4 8.097000122070312,-3.740999937057495 8.243000030517578,-3.3510000705718994 C8.243000030517578,-3.3510000705718994 11,4 11,4 C11,4 11,4 11,4 C11,4 -11,4 -11,4 C-11,4 -8.243000030517578,-3.3510000705718994 -8.243000030517578,-3.3510000705718994 C-8.097000122070312,-3.740999937057495 -7.723999977111816,-4 -7.307000160217285,-4z"></path></g><g id="l_d_4802" opacity="1" transform="matrix(1,0,0,1,27.5,36)"><path id="l_d_4803" fill="rgb(34,34,34)" fill-opacity="1" d=" M-1.5,-1 C-1.5,-1 1.5,-1 1.5,-1 C1.5,-1 1.5,1 1.5,1 C1.5,1 -1.5,1 -1.5,1 C-1.5,1 -1.5,-1 -1.5,-1z"></path></g><g id="l_d_4804" opacity="1" transform="matrix(1,0,0,1,52.5,36)"><path id="l_d_4805" fill="rgb(34,34,34)" fill-opacity="1" d=" M-1.5,-1 C-1.5,-1 1.5,-1 1.5,-1 C1.5,-1 1.5,1 1.5,1 C1.5,1 -1.5,1 -1.5,1 C-1.5,1 -1.5,-1 -1.5,-1z"></path></g><g id="l_d_4806" opacity="1" transform="matrix(1,0,0,1,40,43)"><path id="l_d_4807" stroke-linecap="butt" stroke-linejoin="miter" fill-opacity="0" stroke-miterlimit="4" stroke="rgb(34,34,34)" stroke-opacity="1" stroke-width="2" d=" M-6,0 C-6,0 6,0 6,0"></path></g></g><g id="l_d_4782" clip-path="url(#__lottie_element_2126)" style="display: none;" transform="matrix(1,0,0,1,16,21.625)" opacity="1"><g id="l_d_4788" opacity="1" transform="matrix(1,0,0,1,0,0)"><path id="l_d_4789" fill="rgb(34,34,34)" fill-opacity="1" d=" M-0.847000002861023,8 C-0.847000002861023,8 -3.4170000553131104,20.75 -3.4170000553131104,20.75 C-3.4170000553131104,20.75 3.0829999446868896,20.75 3.0829999446868896,20.75 C3.0829999446868896,20.75 0.3190000057220459,8.083000183105469 0.3190000057220459,8.083000183105469"></path></g></g><g id="l_d_4774" clip-path="url(#__lottie_element_2123)" style="display: none;" transform="matrix(1,0,0,1,16,21.625)" opacity="1"><g id="l_d_4780" opacity="1" transform="matrix(1,0,0,1,0,0)"><path id="l_d_4781" fill="rgb(34,34,34)" fill-opacity="1" d=" M-0.847000002861023,8 C-0.847000002861023,8 -3.4170000553131104,20.75 -3.4170000553131104,20.75 C-3.4170000553131104,20.75 3.0829999446868896,20.75 3.0829999446868896,20.75 C3.0829999446868896,20.75 0.3190000057220459,8.083000183105469 0.3190000057220459,8.083000183105469"></path></g></g><g id="l_d_4766" clip-path="url(#__lottie_element_2120)" style="display: none;" transform="matrix(1,0,0,1,16,21.625)" opacity="1"><g id="l_d_4772" opacity="1" transform="matrix(1,0,0,1,0,0)"><path id="l_d_4773" fill="rgb(34,34,34)" fill-opacity="1" d=" M-0.847000002861023,8 C-0.847000002861023,8 -3.4170000553131104,20.75 -3.4170000553131104,20.75 C-3.4170000553131104,20.75 3.0829999446868896,20.75 3.0829999446868896,20.75 C3.0829999446868896,20.75 0.3190000057220459,8.083000183105469 0.3190000057220459,8.083000183105469"></path></g></g><g id="l_d_4758" clip-path="url(#__lottie_element_2117)" style="display: none;" transform="matrix(1,0,0,1,16,21.625)" opacity="1"><g id="l_d_4764" opacity="1" transform="matrix(1,0,0,1,0,0)"><path id="l_d_4765" fill="rgb(34,34,34)" fill-opacity="1" d=" M-0.847000002861023,8 C-0.847000002861023,8 -3.4170000553131104,20.75 -3.4170000553131104,20.75 C-3.4170000553131104,20.75 3.0829999446868896,20.75 3.0829999446868896,20.75 C3.0829999446868896,20.75 0.3190000057220459,8.083000183105469 0.3190000057220459,8.083000183105469"></path></g></g><g id="l_d_4750" clip-path="url(#__lottie_element_2114)" style="display: none;" transform="matrix(1,0,0,1,16,21.625)" opacity="1"><g id="l_d_4756" opacity="1" transform="matrix(1,0,0,1,0,0)"><path id="l_d_4757" fill="rgb(34,34,34)" fill-opacity="1" d=" M-0.847000002861023,8 C-0.847000002861023,8 -3.4170000553131104,20.75 -3.4170000553131104,20.75 C-3.4170000553131104,20.75 3.0829999446868896,20.75 3.0829999446868896,20.75 C3.0829999446868896,20.75 0.3190000057220459,8.083000183105469 0.3190000057220459,8.083000183105469"></path></g></g><g id="l_d_4742" clip-path="url(#__lottie_element_2111)" style="display: none;" transform="matrix(1,0,0,1,16,21.625)" opacity="1"><g id="l_d_4748" opacity="1" transform="matrix(1,0,0,1,0,0)"><path id="l_d_4749" fill="rgb(34,34,34)" fill-opacity="1" d=" M-0.847000002861023,8 C-0.847000002861023,8 -3.4170000553131104,20.75 -3.4170000553131104,20.75 C-3.4170000553131104,20.75 3.0829999446868896,20.75 3.0829999446868896,20.75 C3.0829999446868896,20.75 0.3190000057220459,8.083000183105469 0.3190000057220459,8.083000183105469"></path></g></g><g id="l_d_4734" clip-path="url(#__lottie_element_2108)" style="display: none;" transform="matrix(1,0,0,1,16,21.625)" opacity="1"><g id="l_d_4740" opacity="1" transform="matrix(1,0,0,1,0,0)"><path id="l_d_4741" fill="rgb(34,34,34)" fill-opacity="1" d=" M-0.847000002861023,8 C-0.847000002861023,8 -3.4170000553131104,20.75 -3.4170000553131104,20.75 C-3.4170000553131104,20.75 3.0829999446868896,20.75 3.0829999446868896,20.75 C3.0829999446868896,20.75 0.3190000057220459,8.083000183105469 0.3190000057220459,8.083000183105469"></path></g></g></g></svg>