<svg id="l_d_4706" xmlns="http://www.w3.org/2000/svg" xmlns:xlink="http://www.w3.org/1999/xlink" viewBox="0 0 45 45" width="45" height="45" preserveAspectRatio="xMidYMid meet" style="width: 100%; height: 100%; transform: translate3d(0px, 0px, 0px); content-visibility: visible;"><defs id="l_d_4707"><clipPath id="__lottie_element_2097"><rect id="l_d_4710" width="45" height="45" x="0" y="0"></rect></clipPath><clipPath id="__lottie_element_2103"><path id="l_d_4723" fill="#ffffff" clip-rule="nonzero" d=" M0.12700000405311584,-9.539999961853027 C-4.658999919891357,-9.539999961853027 -8.538000106811523,-5.660999774932861 -8.538000106811523,-0.875 C-8.538000106811523,3.9110000133514404 -4.658999919891357,7.790999889373779 0.12700000405311584,7.790999889373779 C4.913000106811523,7.790999889373779 8.791999816894531,3.9110000133514404 8.791999816894531,-0.875 C8.791999816894531,-5.660999774932861 4.913000106811523,-9.539999961853027 0.12700000405311584,-9.539999961853027" fill-opacity="1"></path></clipPath></defs><g id="l_d_4708" clip-path="url(#__lottie_element_2097)"><g id="l_d_4721" clip-path="url(#__lottie_element_2103)" transform="matrix(0.9999977946281433,0,0,0.9999977946281433,16.000001907348633,23.875001907348633)" opacity="1" style="display: block;"><g id="l_d_4726" opacity="1" transform="matrix(1,0,0,1,0.28600001335144043,15.517000198364258)"><path id="l_d_4727" stroke-linecap="butt" stroke-linejoin="miter" fill-opacity="0" stroke-miterlimit="4" stroke="rgb(34,34,34)" stroke-opacity="1" stroke-width="2" d=" M-32.2859992980957,-19.517000198364258 C-32.63199996948242,-16.099000930786133 -33.24599838256836,-8.692999839782715 -33.590999603271484,-1.7200000286102295 C-33.9370002746582,5.252999782562256 -34.013999938964844,11.793999671936035 -33.2859992980957,13.482999801635742 C-33.03099822998047,14.074000358581543 -31.957000732421875,14.812999725341797 -30.733999252319336,15.534000396728516 C-29.51099967956543,16.2549991607666 -28.13800048828125,16.958999633789062 -27.285999298095703,17.482999801635742 C-24.423999786376953,19.240999221801758 -22.816999435424805,20.54400062561035 -20.285999298095703,20.482999801635742 C-15.484999656677246,20.367000579833984 -12.597999572753906,14.319999694824219 -7.285999774932861,14.482999801635742 C-5.291999816894531,14.543999671936035 -3.1459999084472656,16.420000076293945 -1.2860000133514404,17.482999801635742 C1.3279999494552612,18.976999282836914 2.8420000076293945,20.59600067138672 5.714000225067139,20.482999801635742 C10.42300033569336,20.29800033569336 12.993000030517578,14.501999855041504 17.714000701904297,14.482999801635742 C24.24799919128418,14.456000328063965 25.441999435424805,22.459999084472656 32.7140007019043,20.482999801635742 C32.7140007019043,14.904000282287598 32.7140007019043,9.734000205993652 32.7140007019043,3.4830000400543213 C32.7140007019043,-2.502000093460083 34.487998962402344,-11.605999946594238 32.7140007019043,-14.517000198364258 C32.39400100708008,-15.041999816894531 28.417999267578125,-14.321000099182129 27.714000701904297,-14.517000198364258 C25.652000427246094,-15.092000007629395 23.450000762939453,-17.75200080871582 21.714000701904297,-18.517000198364258 C13.72700023651123,-22.038000106811523 10.498000144958496,-14.199000358581543 3.7139999866485596,-14.517000198364258 C2.257999897003174,-14.585000038146973 1.628000020980835,-14.98799991607666 0.7139999866485596,-15.517000198364258 C-2.740999937057495,-17.517000198364258 -4.617000102996826,-19.576000213623047 -8.28600025177002,-19.517000198364258 C-13.229000091552734,-19.437000274658203 -15.835000038146973,-14.345000267028809 -21.285999298095703,-14.517000198364258 C-27.045000076293945,-14.699000358581543 -26.7450008392334,-19.878999710083008 -32.2859992980957,-19.517000198364258z"></path></g></g><g id="l_d_4711" transform="matrix(0.9999977946281433,0,0,0.9999977946281433,-23.999910354614258,-16.124910354614258)" opacity="1" style="display: block;"><g id="l_d_4715" opacity="1" transform="matrix(1,0,0,1,40,39)"><path id="l_d_4716" stroke-linecap="butt" stroke-linejoin="miter" fill-opacity="0" stroke-miterlimit="4" stroke="rgb(34,34,34)" stroke-opacity="1" stroke-width="2" d=" M-12,-13 C-12,-13 12,-13 12,-13 C12.552000045776367,-13 13,-12.552000045776367 13,-12 C13,-12 13,12 13,12 C13,12.552000045776367 12.552000045776367,13 12,13 C12,13 -12,13 -12,13 C-12.552000045776367,13 -13,12.552000045776367 -13,12 C-13,12 -13,-12 -13,-12 C-13,-12.552000045776367 -12.552000045776367,-13 -12,-13z"></path></g><g id="l_d_4717" opacity="1" transform="matrix(1,0,0,1,40,39)"><path id="l_d_4718" stroke-linecap="butt" stroke-linejoin="miter" fill-opacity="0" stroke-miterlimit="4" stroke="rgb(34,34,34)" stroke-opacity="1" stroke-width="2" d=" M0,-8 C4.418000221252441,-8 8,-4.418000221252441 8,0 C8,4.418000221252441 4.418000221252441,8 0,8 C-4.418000221252441,8 -8,4.418000221252441 -8,0 C-8,-4.418000221252441 -4.418000221252441,-8 0,-8z"></path></g><g id="l_d_4719" opacity="1" transform="matrix(1,0,0,1,31,30)"><path id="l_d_4720" fill="rgb(0,0,0)" fill-opacity="1" d=" M0,-1 C0.5519999861717224,-1 1,-0.5519999861717224 1,0 C1,0.5519999861717224 0.5519999861717224,1 0,1 C-0.5519999861717224,1 -1,0.5519999861717224 -1,0 C-1,-0.5519999861717224 -0.5519999861717224,-1 0,-1z"></path></g></g></g></svg>